<svg xmlns="http://www.w3.org/2000/svg" viewBox="0 0 512 512" role="img" aria-labelledby="title desc">
  <title id="title">Next Steps Radio Icon</title>
  <desc id="desc">A radio microphone and broadcast waves for the Next Steps Radio Podcast Network.</desc>
  <rect width="512" height="512" rx="96" fill="#1e3a8a"/>
  <circle cx="256" cy="256" r="184" fill="#ffffff" opacity="0.08"/>
  <path d="M196 205c0-33 27-60 60-60s60 27 60 60v74c0 33-27 60-60 60s-60-27-60-60v-74z" fill="#ffffff"/>
  <path d="M166 262c0 50 40 90 90 90s90-40 90-90" fill="none" stroke="#ffffff" stroke-width="28" stroke-linecap="round"/>
  <path d="M256 352v56" stroke="#ffffff" stroke-width="28" stroke-linecap="round"/>
  <path d="M206 408h100" stroke="#ffffff" stroke-width="28" stroke-linecap="round"/>
  <path d="M132 193c-21 34-31 73-31 112s10 78 31 112" fill="none" stroke="#ffffff" stroke-width="20" stroke-linecap="round" opacity="0.72"/>
  <path d="M380 193c21 34 31 73 31 112s-10 78-31 112" fill="none" stroke="#ffffff" stroke-width="20" stroke-linecap="round" opacity="0.72"/>
</svg>
